<?xml version="1.0" encoding="UTF-8" standalone="no"?>
<svg xmlns:dc="http://purl.org/dc/elements/1.1/" xmlns:cc="http://creativecommons.org/ns#" xmlns:rdf="http://www.w3.org/1999/02/22-rdf-syntax-ns#" xmlns:svg="http://www.w3.org/2000/svg" xmlns="http://www.w3.org/2000/svg" xmlns:sodipodi="http://sodipodi.sourceforge.net/DTD/sodipodi-0.dtd" xmlns:inkscape="http://www.inkscape.org/namespaces/inkscape" version="1.0" width="468pt" height="234pt" viewBox="0 0 468 234" preserveAspectRatio="xMidYMid meet" id="svg4574" sodipodi:version="0.32" inkscape:version="0.46" sodipodi:docname="Ninja-kanji-PT.svg" inkscape:output_extension="org.inkscape.output.svg.inkscape">
  <defs id="defs4593">
    <inkscape:perspective sodipodi:type="inkscape:persp3d" inkscape:vp_x="0 : 146.25 : 1" inkscape:vp_y="0 : 1000 : 0" inkscape:vp_z="585 : 146.25 : 1" inkscape:persp3d-origin="292.5 : 97.5 : 1" id="perspective4595"/>
  </defs>
  <sodipodi:namedview inkscape:window-height="726" inkscape:window-width="893" inkscape:pageshadow="2" inkscape:pageopacity="0.0" guidetolerance="10.0" gridtolerance="10.0" objecttolerance="10.0" borderopacity="1.0" bordercolor="#666666" pagecolor="#ffffff" id="base" showgrid="false" inkscape:zoom="0.95726496" inkscape:cx="292.5" inkscape:cy="146.25" inkscape:window-x="463" inkscape:window-y="25" inkscape:current-layer="svg4574"/>
  <metadata id="metadata4576">
Created by potrace 1.8, written by Peter Selinger 2001-2007
<rdf:RDF>
  <cc:Work rdf:about="">
    <dc:format>image/svg+xml</dc:format>
    <dc:type rdf:resource="http://purl.org/dc/dcmitype/StillImage"/>
  </cc:Work>
</rdf:RDF>
</metadata>
  <path style="fill:#FFFFFF" id="path4580" d="M 140.4,15.678 C 135.135,18.486 106.353,27.144 80.145,33.93 C 62.361,38.493 60.84,39.195 60.84,42.12 C 60.84,43.875 62.478,45.279 67.041,47.385 C 74.412,50.895 75.114,50.895 83.655,47.97 C 87.399,46.683 91.377,45.63 92.43,45.63 C 95.238,45.63 95.94,49.023 94.419,55.575 C 93.132,61.074 93.132,61.074 89.037,60.372 C 86.697,59.904 82.368,59.319 79.326,58.851 C 74.295,58.266 73.944,58.383 73.476,60.957 C 73.242,63.297 74.412,64.584 80.145,68.328 C 84.006,70.785 87.399,73.008 87.633,73.242 C 89.388,74.763 72.306,103.896 60.957,118.755 C 53.118,128.934 52.299,131.625 56.745,132.444 C 60.138,133.146 67.977,126.945 81.081,113.139 C 88.335,105.417 103.311,85.995 104.481,82.719 C 104.715,81.9 106.938,82.251 111.15,84.006 C 121.68,88.335 126.36,87.399 126.36,80.73 C 126.36,75.465 122.382,69.264 117.585,66.69 C 115.596,65.754 113.841,64.818 113.724,64.701 C 113.49,64.584 114.309,61.542 115.713,57.915 C 118.872,49.608 118.755,48.321 115.362,43.173 L 112.437,38.961 L 127.296,34.515 C 135.486,32.058 143.091,29.835 144.378,29.484 C 146.367,28.899 146.484,29.367 145.782,34.632 C 143.559,50.31 135.018,82.602 131.04,90.207 C 127.647,96.759 125.19,98.28 117.936,98.28 C 106.002,98.28 103.311,102.141 111.852,106.821 C 114.309,108.342 119.223,113.022 122.733,117.351 C 127.296,123.084 129.753,125.19 131.859,125.19 C 137.007,125.19 143.208,116.298 148.356,101.205 C 152.451,89.505 160.992,61.074 164.97,46.332 C 166.959,38.61 169.416,31.239 170.235,29.952 C 172.575,26.442 172.575,26.559 171.054,23.751 C 169.299,20.475 153.972,12.87 149.292,12.87 C 147.303,12.987 143.325,14.157 140.4,15.678 z"/>
  <path style="fill:#FFFFFF" id="path4582" d="M 321.984,20.124 C 319.995,22.113 320.229,23.751 323.505,28.548 C 325.962,32.175 326.547,34.749 327.132,44.46 L 327.951,55.926 L 323.388,57.213 C 320.931,57.915 312.624,59.904 305.019,61.659 C 291.681,64.701 291.213,64.935 291.564,67.743 C 291.798,70.083 293.085,71.136 297.765,72.891 C 304.317,75.348 307.593,75.114 319.761,71.487 L 327.6,69.147 L 327.6,80.145 C 327.6,89.622 327.366,91.143 325.611,91.728 C 324.441,92.079 307.242,95.472 287.235,99.45 C 250.965,106.47 247.221,107.64 248.859,111.852 C 249.561,113.841 261.027,118.17 265.473,118.17 C 267.345,118.17 278.46,115.83 290.277,112.905 C 313.677,107.289 340.704,101.673 341.289,102.258 C 342.225,103.194 306.54,138.177 295.074,147.654 C 281.502,159.003 264.654,171.171 251.316,179.478 C 246.285,182.52 242.19,185.796 242.19,186.732 C 242.19,196.794 284.895,175.734 315.666,150.579 C 317.421,149.175 316.836,160.173 314.262,181.584 C 312.858,192.348 312.975,193.05 315.432,197.964 C 316.836,200.772 318.825,203.814 319.878,204.633 C 323.622,207.675 332.28,205.803 332.28,201.825 C 332.28,200.304 349.83,197.73 360.126,197.73 C 365.742,197.73 365.976,197.847 371.358,204.75 C 374.4,208.611 377.208,211.77 377.676,211.887 C 383.292,212.589 384.111,212.238 386.685,209.196 C 391.599,203.346 392.886,195.624 394.173,164.385 C 394.875,148.239 395.577,133.263 395.694,131.04 C 396.045,127.179 395.694,126.828 389.025,123.201 C 385.164,121.095 380.367,119.34 378.378,119.34 C 376.272,119.34 367.965,121.212 359.658,123.435 C 351.468,125.658 344.565,127.53 344.331,127.53 C 343.98,127.53 350.181,120.744 358.02,112.437 L 372.294,97.461 L 384.813,96.057 C 391.716,95.355 404.937,94.419 414.297,94.068 C 433.251,93.249 436.41,92.196 436.41,86.58 C 436.41,80.847 427.635,76.167 413.127,74.178 C 408.33,73.593 407.16,73.827 404.118,76.401 C 401.076,78.975 386.919,83.07 385.632,81.783 C 385.398,81.549 389.025,76.752 393.822,71.136 C 400.725,62.946 402.48,60.138 402.48,57.096 C 402.48,48.906 392.769,39.546 383.994,39.312 L 379.665,39.195 L 379.899,44.811 L 380.016,50.31 L 377.208,48.087 C 375.57,46.8 371.358,45.162 367.848,44.46 C 361.764,43.173 361.062,43.29 357.084,45.864 C 347.958,51.831 347.607,51.48 350.298,39.078 C 352.053,31.005 351.351,28.314 346.788,24.687 C 340.587,19.89 325.143,16.965 321.984,20.124 z M 373.581,61.074 C 372.996,61.893 368.667,67.977 363.987,74.529 C 355.563,86.463 354.159,87.75 349.479,87.75 C 347.022,87.75 346.905,87.399 347.256,76.401 C 347.49,70.083 347.841,64.818 348.075,64.584 C 348.66,63.882 368.199,59.904 371.358,59.787 C 373.815,59.67 374.4,60.021 373.581,61.074 z M 372.06,159.237 C 372.06,178.191 371.709,183.573 370.656,182.988 C 368.433,181.584 362.466,182.286 349.479,185.445 C 332.397,189.657 333.45,190.008 333.45,179.127 L 333.45,169.884 L 341.406,168.129 C 345.735,167.193 351.117,166.023 353.34,165.555 C 366.093,163.098 369.603,160.758 367.965,155.727 C 366.327,150.345 353.574,147.771 347.958,151.632 C 346.086,153.036 342.108,154.908 339.066,155.961 L 333.45,157.833 L 333.45,150.345 C 333.45,143.442 333.684,142.74 336.141,142.155 C 337.545,141.804 345.267,140.166 353.34,138.528 C 361.413,136.89 368.199,135.252 368.433,135.018 C 368.667,134.784 369.603,134.55 370.539,134.55 C 371.709,134.55 372.06,139.464 372.06,159.237 z"/>
  <path style="fill:#FFFFFF" id="path4584" d="M 171.639,122.499 C 168.831,125.19 170.82,127.53 193.401,147.42 C 202.527,155.493 207.207,158.067 212.238,157.716 C 216.45,157.365 217.035,156.897 218.088,153.621 C 218.907,150.345 218.556,148.59 215.514,142.389 C 209.898,131.04 207.558,129.402 191.061,125.307 C 176.436,121.563 172.926,121.095 171.639,122.499 z"/>
  <path style="fill:#FFFFFF" id="path4586" d="M 124.605,130.104 C 122.265,131.859 120.627,132.21 117.819,131.742 C 105.183,129.051 104.598,129.168 105.3,135.135 C 105.651,138.645 111.735,149.994 115.362,153.738 C 122.382,161.109 133.731,162.279 135.135,155.61 C 135.486,153.738 135.369,150.228 134.667,147.771 C 133.965,145.314 133.38,141.219 133.38,138.645 C 133.38,128.7 130.221,125.658 124.605,130.104 z"/>
  <path style="fill:#FFFFFF" id="path4588" d="M 68.211,145.782 C 67.275,148.356 69.615,154.674 75.348,164.268 C 86.463,182.988 104.481,195.624 129.87,202.527 C 138.762,204.984 142.389,205.335 164.97,205.335 C 188.838,205.335 190.359,205.218 195.624,202.644 C 204.75,198.198 204.165,191.061 194.103,184.86 C 191.061,182.988 182.637,175.383 175.266,168.012 C 162.045,154.557 157.716,151.866 156.078,156.195 C 155.727,157.131 157.599,163.098 160.173,169.533 C 162.864,175.968 164.97,181.935 164.97,182.871 C 164.97,186.966 146.25,186.264 125.775,181.233 C 106.821,176.67 88.92,164.97 77.805,149.76 C 73.359,143.793 69.615,142.155 68.211,145.782 z"/>
  <path style="fill:#FFFFFF;fill-opacity:1;stroke:#000000;stroke-opacity:1" id="path4590" d="M 45.279,149.409 C 44.928,149.877 43.524,153.504 42.237,157.365 C 40.833,161.226 37.791,167.544 35.334,171.405 C 31.356,177.957 31.005,179.127 31.005,187.317 C 31.005,198.198 32.877,201.24 39.897,201.24 C 45.045,201.24 49.491,196.911 51.48,189.774 C 53.235,183.456 54.054,165.555 53.001,156.78 C 52.182,149.643 51.831,149.175 48.906,148.824 C 47.268,148.59 45.63,148.824 45.279,149.409 z"/>
</svg>